<svg width="1024" height="1024" viewBox="0 0 1024 1024" fill="none" xmlns="http://www.w3.org/2000/svg">
<rect width="1024" height="1024" rx="256" fill="#E44641"/>
<path d="M605.333 485.333H658.667C695.413 485.333 725.333 455.413 725.333 418.667V365.333C725.333 328.587 695.413 298.667 658.667 298.667H605.333C568.587 298.667 538.667 328.587 538.667 365.333V418.667C538.667 455.413 568.587 485.333 605.333 485.333ZM592 365.333C592 357.973 597.973 352 605.333 352H658.667C666.027 352 672 357.973 672 365.333V418.667C672 426.027 666.027 432 658.667 432H605.333C597.973 432 592 426.027 592 418.667V365.333ZM832 645.333V698.667C832 772.187 772.187 832 698.667 832H645.333C630.613 832 618.667 820.053 618.667 805.333C618.667 790.613 630.613 778.667 645.333 778.667H698.667C742.773 778.667 778.667 742.773 778.667 698.667V645.333C778.667 630.613 790.613 618.667 805.333 618.667C820.053 618.667 832 630.613 832 645.333ZM832 325.333V378.667C832 393.387 820.053 405.333 805.333 405.333C790.613 405.333 778.667 393.387 778.667 378.667V325.333C778.667 281.227 742.773 245.333 698.667 245.333H645.333C630.613 245.333 618.667 233.387 618.667 218.667C618.667 203.947 630.613 192 645.333 192H698.667C772.187 192 832 251.813 832 325.333ZM618.667 685.333C618.667 707.413 600.747 725.333 578.667 725.333C556.587 725.333 538.667 707.413 538.667 685.333C538.667 663.253 556.587 645.333 578.667 645.333C600.747 645.333 618.667 663.253 618.667 685.333ZM685.333 538.667C707.413 538.667 725.333 556.587 725.333 578.667C725.333 600.747 707.413 618.667 685.333 618.667C663.253 618.667 645.333 600.747 645.333 578.667C645.333 556.587 663.253 538.667 685.333 538.667ZM538.667 578.667C538.667 556.587 556.587 538.667 578.667 538.667C600.747 538.667 618.667 556.587 618.667 578.667C618.667 600.747 600.747 618.667 578.667 618.667C556.587 618.667 538.667 600.747 538.667 578.667Z" fill="white"/>
<path d="M480 212C480 200.96 473.47 191.76 465.611 193.4C416.407 203.68 380.667 273.88 378.934 531.88C378.934 537.171 380.448 542.246 383.145 545.994C385.841 549.742 407.318 548.979 411.139 549C427.319 549.4 422.215 557.08 422.215 592V812C422.215 817.304 423.737 822.391 426.446 826.142C429.155 829.893 432.83 832 436.661 832H465.554C469.385 832 473.06 829.893 475.769 826.142C478.478 822.391 480 817.304 480 812V212ZM227.19 192C229.106 192 230.943 193.054 232.298 194.929C233.652 196.804 234.413 199.348 234.413 202V406.88C234.39 408.238 234.758 409.553 235.435 410.536C236.112 411.518 237.044 412.088 238.025 412.12C239.006 412.152 239.955 411.643 240.665 410.705C241.375 409.768 241.787 408.478 241.81 407.12L248.542 201.52C248.631 198.945 249.435 196.517 250.787 194.744C252.138 192.97 253.932 191.987 255.794 192H270.876C272.733 191.997 274.519 192.985 275.864 194.757C277.209 196.53 278.01 198.952 278.099 201.52L284.831 407.12C284.854 408.478 285.265 409.768 285.975 410.705C286.685 411.643 287.635 412.152 288.616 412.12C289.597 412.088 290.528 411.518 291.205 410.536C291.883 409.553 292.25 408.238 292.227 406.88V202C292.227 199.355 292.984 196.817 294.333 194.943C295.681 193.069 297.511 192.011 299.421 192H307.8C311.421 192.002 314.908 193.886 317.573 197.279C320.237 200.672 321.885 205.326 322.189 210.32L334.41 413.12C335.283 427.562 332.78 442.009 327.271 454.332C321.762 466.654 313.538 476.2 303.813 481.56L302.282 482.44C297.201 485.233 292.866 490.127 289.868 496.455C286.869 502.782 285.352 510.236 285.524 517.8L291.332 792C291.332 802.301 292.644 817.716 287.383 825C282.122 832.284 270.717 830.84 263.277 830.84C255.836 830.84 246.416 832.284 241.155 825C235.893 817.716 235.222 802.301 235.222 792L241.059 517.8C241.231 510.236 239.714 502.782 236.715 496.455C233.716 490.127 229.381 485.233 224.301 482.44L222.77 481.56C213.039 476.198 204.812 466.646 199.303 454.315C193.793 441.985 191.293 427.528 192.172 413.08L204.423 210.32C204.727 205.326 206.374 200.672 209.039 197.279C211.703 193.886 215.191 192.002 218.811 192H227.19Z" fill="white"/>
</svg>
