<svg width="1348" height="256" viewBox="0 0 1348 256" fill="none" xmlns="http://www.w3.org/2000/svg">
<path d="M351.66 118.92C362.316 118.92 371.628 120.984 379.596 125.112C387.66 129.144 393.852 135 398.172 142.68C402.588 150.264 404.796 159.144 404.796 169.32C404.796 179.496 402.588 188.328 398.172 195.816C393.852 203.304 387.66 209.064 379.596 213.096C371.628 217.032 362.316 219 351.66 219H318.972V118.92H351.66ZM351.66 205.608C363.372 205.608 372.348 202.44 378.588 196.104C384.828 189.768 387.948 180.84 387.948 169.32C387.948 157.704 384.828 148.632 378.588 142.104C372.348 135.576 363.372 132.312 351.66 132.312H335.388V205.608H351.66ZM415.594 178.968C415.594 171 417.226 163.944 420.49 157.8C423.85 151.656 428.362 146.904 434.026 143.544C439.786 140.088 446.122 138.36 453.034 138.36C459.274 138.36 464.698 139.608 469.306 142.104C474.01 144.504 477.754 147.528 480.538 151.176V139.656H497.098V219H480.538V207.192C477.754 210.936 473.962 214.056 469.162 216.552C464.362 219.048 458.89 220.296 452.746 220.296C445.93 220.296 439.69 218.568 434.026 215.112C428.362 211.56 423.85 206.664 420.49 200.424C417.226 194.088 415.594 186.936 415.594 178.968ZM480.538 179.256C480.538 173.784 479.386 169.032 477.082 165C474.874 160.968 471.946 157.896 468.298 155.784C464.65 153.672 460.714 152.616 456.49 152.616C452.266 152.616 448.33 153.672 444.682 155.784C441.034 157.8 438.058 160.824 435.754 164.856C433.546 168.792 432.442 173.496 432.442 178.968C432.442 184.44 433.546 189.24 435.754 193.368C438.058 197.496 441.034 200.664 444.682 202.872C448.426 204.984 452.362 206.04 456.49 206.04C460.714 206.04 464.65 204.984 468.298 202.872C471.946 200.76 474.874 197.688 477.082 193.656C479.386 189.528 480.538 184.728 480.538 179.256ZM513.187 178.968C513.187 171 514.819 163.944 518.083 157.8C521.443 151.656 525.955 146.904 531.619 143.544C537.379 140.088 543.715 138.36 550.627 138.36C556.867 138.36 562.291 139.608 566.899 142.104C571.603 144.504 575.347 147.528 578.131 151.176V139.656H594.691V219H578.131V207.192C575.347 210.936 571.555 214.056 566.755 216.552C561.955 219.048 556.483 220.296 550.339 220.296C543.523 220.296 537.283 218.568 531.619 215.112C525.955 211.56 521.443 206.664 518.083 200.424C514.819 194.088 513.187 186.936 513.187 178.968ZM578.131 179.256C578.131 173.784 576.979 169.032 574.675 165C572.467 160.968 569.539 157.896 565.891 155.784C562.243 153.672 558.307 152.616 554.083 152.616C549.859 152.616 545.923 153.672 542.275 155.784C538.627 157.8 535.651 160.824 533.347 164.856C531.139 168.792 530.035 173.496 530.035 178.968C530.035 184.44 531.139 189.24 533.347 193.368C535.651 197.496 538.627 200.664 542.275 202.872C546.019 204.984 549.955 206.04 554.083 206.04C558.307 206.04 562.243 204.984 565.891 202.872C569.539 200.76 572.467 197.688 574.675 193.656C576.979 189.528 578.131 184.728 578.131 179.256ZM712.301 138.36C718.541 138.36 724.109 139.656 729.005 142.248C733.997 144.84 737.885 148.68 740.669 153.768C743.549 158.856 744.989 165 744.989 172.2V219H728.717V174.648C728.717 167.544 726.941 162.12 723.389 158.376C719.837 154.536 714.989 152.616 708.845 152.616C702.701 152.616 697.805 154.536 694.157 158.376C690.605 162.12 688.829 167.544 688.829 174.648V219H672.557V174.648C672.557 167.544 670.781 162.12 667.229 158.376C663.677 154.536 658.829 152.616 652.685 152.616C646.541 152.616 641.645 154.536 637.997 158.376C634.445 162.12 632.669 167.544 632.669 174.648V219H616.253V139.656H632.669V148.728C635.357 145.464 638.765 142.92 642.893 141.096C647.021 139.272 651.437 138.36 656.141 138.36C662.477 138.36 668.141 139.704 673.133 142.392C678.125 145.08 681.965 148.968 684.653 154.056C687.053 149.256 690.797 145.464 695.885 142.68C700.973 139.8 706.445 138.36 712.301 138.36ZM760.406 178.968C760.406 171 762.038 163.944 765.302 157.8C768.662 151.656 773.174 146.904 778.838 143.544C784.598 140.088 790.982 138.36 797.99 138.36C803.174 138.36 808.262 139.512 813.254 141.816C818.342 144.024 822.374 147 825.35 150.744V112.44H841.91V219H825.35V207.048C822.662 210.888 818.918 214.056 814.118 216.552C809.414 219.048 803.99 220.296 797.846 220.296C790.934 220.296 784.598 218.568 778.838 215.112C773.174 211.56 768.662 206.664 765.302 200.424C762.038 194.088 760.406 186.936 760.406 178.968ZM825.35 179.256C825.35 173.784 824.198 169.032 821.894 165C819.686 160.968 816.758 157.896 813.11 155.784C809.462 153.672 805.526 152.616 801.302 152.616C797.078 152.616 793.142 153.672 789.494 155.784C785.846 157.8 782.87 160.824 780.566 164.856C778.358 168.792 777.254 173.496 777.254 178.968C777.254 184.44 778.358 189.24 780.566 193.368C782.87 197.496 785.846 200.664 789.494 202.872C793.238 204.984 797.174 206.04 801.302 206.04C805.526 206.04 809.462 204.984 813.11 202.872C816.758 200.76 819.686 197.688 821.894 193.656C824.198 189.528 825.35 184.728 825.35 179.256ZM935.328 139.656V219H918.912V209.64C916.32 212.904 912.912 215.496 908.688 217.416C904.56 219.24 900.144 220.152 895.44 220.152C889.2 220.152 883.584 218.856 878.592 216.264C873.696 213.672 869.808 209.832 866.928 204.744C864.144 199.656 862.752 193.512 862.752 186.312V139.656H879.024V183.864C879.024 190.968 880.8 196.44 884.352 200.28C887.904 204.024 892.752 205.896 898.896 205.896C905.04 205.896 909.888 204.024 913.44 200.28C917.088 196.44 918.912 190.968 918.912 183.864V139.656H935.328ZM1028.84 139.656V219H1012.43V209.64C1009.84 212.904 1006.43 215.496 1002.2 217.416C998.076 219.24 993.66 220.152 988.956 220.152C982.716 220.152 977.1 218.856 972.108 216.264C967.212 213.672 963.324 209.832 960.444 204.744C957.66 199.656 956.268 193.512 956.268 186.312V139.656H972.54V183.864C972.54 190.968 974.316 196.44 977.868 200.28C981.42 204.024 986.268 205.896 992.412 205.896C998.556 205.896 1003.4 204.024 1006.96 200.28C1010.6 196.44 1012.43 190.968 1012.43 183.864V139.656H1028.84Z" fill="#343434"/>
<path d="M351.66 118.92C362.316 118.92 371.628 120.984 379.596 125.112C387.66 129.144 393.852 135 398.172 142.68C402.588 150.264 404.796 159.144 404.796 169.32C404.796 179.496 402.588 188.328 398.172 195.816C393.852 203.304 387.66 209.064 379.596 213.096C371.628 217.032 362.316 219 351.66 219H318.972V118.92H351.66ZM351.66 205.608C363.372 205.608 372.348 202.44 378.588 196.104C384.828 189.768 387.948 180.84 387.948 169.32C387.948 157.704 384.828 148.632 378.588 142.104C372.348 135.576 363.372 132.312 351.66 132.312H335.388V205.608H351.66ZM415.594 178.968C415.594 171 417.226 163.944 420.49 157.8C423.85 151.656 428.362 146.904 434.026 143.544C439.786 140.088 446.122 138.36 453.034 138.36C459.274 138.36 464.698 139.608 469.306 142.104C474.01 144.504 477.754 147.528 480.538 151.176V139.656H497.098V219H480.538V207.192C477.754 210.936 473.962 214.056 469.162 216.552C464.362 219.048 458.89 220.296 452.746 220.296C445.93 220.296 439.69 218.568 434.026 215.112C428.362 211.56 423.85 206.664 420.49 200.424C417.226 194.088 415.594 186.936 415.594 178.968ZM480.538 179.256C480.538 173.784 479.386 169.032 477.082 165C474.874 160.968 471.946 157.896 468.298 155.784C464.65 153.672 460.714 152.616 456.49 152.616C452.266 152.616 448.33 153.672 444.682 155.784C441.034 157.8 438.058 160.824 435.754 164.856C433.546 168.792 432.442 173.496 432.442 178.968C432.442 184.44 433.546 189.24 435.754 193.368C438.058 197.496 441.034 200.664 444.682 202.872C448.426 204.984 452.362 206.04 456.49 206.04C460.714 206.04 464.65 204.984 468.298 202.872C471.946 200.76 474.874 197.688 477.082 193.656C479.386 189.528 480.538 184.728 480.538 179.256ZM513.187 178.968C513.187 171 514.819 163.944 518.083 157.8C521.443 151.656 525.955 146.904 531.619 143.544C537.379 140.088 543.715 138.36 550.627 138.36C556.867 138.36 562.291 139.608 566.899 142.104C571.603 144.504 575.347 147.528 578.131 151.176V139.656H594.691V219H578.131V207.192C575.347 210.936 571.555 214.056 566.755 216.552C561.955 219.048 556.483 220.296 550.339 220.296C543.523 220.296 537.283 218.568 531.619 215.112C525.955 211.56 521.443 206.664 518.083 200.424C514.819 194.088 513.187 186.936 513.187 178.968ZM578.131 179.256C578.131 173.784 576.979 169.032 574.675 165C572.467 160.968 569.539 157.896 565.891 155.784C562.243 153.672 558.307 152.616 554.083 152.616C549.859 152.616 545.923 153.672 542.275 155.784C538.627 157.8 535.651 160.824 533.347 164.856C531.139 168.792 530.035 173.496 530.035 178.968C530.035 184.44 531.139 189.24 533.347 193.368C535.651 197.496 538.627 200.664 542.275 202.872C546.019 204.984 549.955 206.04 554.083 206.04C558.307 206.04 562.243 204.984 565.891 202.872C569.539 200.76 572.467 197.688 574.675 193.656C576.979 189.528 578.131 184.728 578.131 179.256ZM712.301 138.36C718.541 138.36 724.109 139.656 729.005 142.248C733.997 144.84 737.885 148.68 740.669 153.768C743.549 158.856 744.989 165 744.989 172.2V219H728.717V174.648C728.717 167.544 726.941 162.12 723.389 158.376C719.837 154.536 714.989 152.616 708.845 152.616C702.701 152.616 697.805 154.536 694.157 158.376C690.605 162.12 688.829 167.544 688.829 174.648V219H672.557V174.648C672.557 167.544 670.781 162.12 667.229 158.376C663.677 154.536 658.829 152.616 652.685 152.616C646.541 152.616 641.645 154.536 637.997 158.376C634.445 162.12 632.669 167.544 632.669 174.648V219H616.253V139.656H632.669V148.728C635.357 145.464 638.765 142.92 642.893 141.096C647.021 139.272 651.437 138.36 656.141 138.36C662.477 138.36 668.141 139.704 673.133 142.392C678.125 145.08 681.965 148.968 684.653 154.056C687.053 149.256 690.797 145.464 695.885 142.68C700.973 139.8 706.445 138.36 712.301 138.36ZM760.406 178.968C760.406 171 762.038 163.944 765.302 157.8C768.662 151.656 773.174 146.904 778.838 143.544C784.598 140.088 790.982 138.36 797.99 138.36C803.174 138.36 808.262 139.512 813.254 141.816C818.342 144.024 822.374 147 825.35 150.744V112.44H841.91V219H825.35V207.048C822.662 210.888 818.918 214.056 814.118 216.552C809.414 219.048 803.99 220.296 797.846 220.296C790.934 220.296 784.598 218.568 778.838 215.112C773.174 211.56 768.662 206.664 765.302 200.424C762.038 194.088 760.406 186.936 760.406 178.968ZM825.35 179.256C825.35 173.784 824.198 169.032 821.894 165C819.686 160.968 816.758 157.896 813.11 155.784C809.462 153.672 805.526 152.616 801.302 152.616C797.078 152.616 793.142 153.672 789.494 155.784C785.846 157.8 782.87 160.824 780.566 164.856C778.358 168.792 777.254 173.496 777.254 178.968C777.254 184.44 778.358 189.24 780.566 193.368C782.87 197.496 785.846 200.664 789.494 202.872C793.238 204.984 797.174 206.04 801.302 206.04C805.526 206.04 809.462 204.984 813.11 202.872C816.758 200.76 819.686 197.688 821.894 193.656C824.198 189.528 825.35 184.728 825.35 179.256ZM935.328 139.656V219H918.912V209.64C916.32 212.904 912.912 215.496 908.688 217.416C904.56 219.24 900.144 220.152 895.44 220.152C889.2 220.152 883.584 218.856 878.592 216.264C873.696 213.672 869.808 209.832 866.928 204.744C864.144 199.656 862.752 193.512 862.752 186.312V139.656H879.024V183.864C879.024 190.968 880.8 196.44 884.352 200.28C887.904 204.024 892.752 205.896 898.896 205.896C905.04 205.896 909.888 204.024 913.44 200.28C917.088 196.44 918.912 190.968 918.912 183.864V139.656H935.328ZM1028.84 139.656V219H1012.43V209.64C1009.84 212.904 1006.43 215.496 1002.2 217.416C998.076 219.24 993.66 220.152 988.956 220.152C982.716 220.152 977.1 218.856 972.108 216.264C967.212 213.672 963.324 209.832 960.444 204.744C957.66 199.656 956.268 193.512 956.268 186.312V139.656H972.54V183.864C972.54 190.968 974.316 196.44 977.868 200.28C981.42 204.024 986.268 205.896 992.412 205.896C998.556 205.896 1003.4 204.024 1006.96 200.28C1010.6 196.44 1012.43 190.968 1012.43 183.864V139.656H1028.84Z" fill="black" fill-opacity="0.2"/>
<path d="M1180.63 215.928L1140.5 175.8C1138.46 173.752 1137.43 171.512 1137.43 169.08C1137.43 166.52 1138.46 164.216 1140.5 162.168C1142.55 160.12 1144.79 159.096 1147.22 159.096C1149.78 159.096 1152.09 160.12 1154.14 162.168L1194.26 202.488C1196.18 204.536 1197.14 206.776 1197.14 209.208C1197.27 211.64 1196.31 213.88 1194.26 215.928C1192.22 217.976 1189.91 219 1187.35 219C1184.92 219 1182.68 217.976 1180.63 215.928ZM1128.22 220.92C1116.95 220.92 1106.65 219.064 1097.3 215.352C1087.96 211.512 1079.9 206.2 1073.11 199.416C1066.46 192.504 1061.27 184.376 1057.56 175.032C1053.85 165.56 1051.99 155.192 1051.99 143.928C1051.99 132.664 1053.85 122.36 1057.56 113.016C1061.27 103.672 1066.46 95.608 1073.11 88.824C1079.9 81.912 1087.96 76.6 1097.3 72.888C1106.65 69.048 1116.95 67.128 1128.22 67.128C1139.48 67.128 1149.72 69.048 1158.94 72.888C1168.28 76.6 1176.34 81.912 1183.13 88.824C1189.91 95.608 1195.16 103.672 1198.87 113.016C1202.58 122.36 1204.44 132.664 1204.44 143.928C1204.44 155.192 1202.58 165.56 1198.87 175.032C1195.16 184.376 1189.91 192.504 1183.13 199.416C1176.34 206.2 1168.28 211.512 1158.94 215.352C1149.72 219.064 1139.48 220.92 1128.22 220.92ZM1128.22 202.872C1136.54 202.872 1144.15 201.4 1151.06 198.456C1158.1 195.384 1164.18 191.224 1169.3 185.976C1174.42 180.6 1178.33 174.328 1181.02 167.16C1183.83 159.992 1185.24 152.248 1185.24 143.928C1185.24 135.608 1183.83 127.864 1181.02 120.696C1178.33 113.528 1174.42 107.32 1169.3 102.072C1164.18 96.696 1158.1 92.536 1151.06 89.592C1144.15 86.648 1136.54 85.176 1128.22 85.176C1119.9 85.176 1112.22 86.648 1105.18 89.592C1098.26 92.536 1092.25 96.696 1087.13 102.072C1082.14 107.32 1078.23 113.528 1075.42 120.696C1072.6 127.864 1071.19 135.608 1071.19 143.928C1071.19 152.248 1072.6 159.992 1075.42 167.16C1078.23 174.328 1082.14 180.6 1087.13 185.976C1092.25 191.224 1098.26 195.384 1105.18 198.456C1112.22 201.4 1119.9 202.872 1128.22 202.872ZM1245.7 219C1242.88 219 1240.52 218.04 1238.6 216.12C1236.68 214.2 1235.72 211.832 1235.72 209.016V79.032C1235.72 76.088 1236.68 73.72 1238.6 71.928C1240.52 70.008 1242.88 69.048 1245.7 69.048H1280.26C1289.86 69.048 1298.37 71.096 1305.8 75.192C1313.22 79.16 1318.98 84.664 1323.08 91.704C1327.3 98.744 1329.41 106.936 1329.41 116.28C1329.41 124.984 1327.3 132.728 1323.08 139.512C1318.98 146.296 1313.22 151.608 1305.8 155.448C1298.37 159.288 1289.86 161.208 1280.26 161.208H1255.68V209.016C1255.68 211.832 1254.72 214.2 1252.8 216.12C1251.01 218.04 1248.64 219 1245.7 219ZM1325.38 219C1323.59 219 1321.92 218.616 1320.39 217.848C1318.98 217.08 1317.76 215.864 1316.74 214.2L1282.18 158.52L1301.57 152.952L1333.06 203.64C1335.36 207.352 1335.68 210.872 1334.02 214.2C1332.36 217.4 1329.48 219 1325.38 219ZM1255.68 142.776H1280.26C1286.15 142.776 1291.33 141.688 1295.81 139.512C1300.29 137.208 1303.81 134.072 1306.37 130.104C1308.93 126.008 1310.21 121.4 1310.21 116.28C1310.21 110.648 1308.93 105.656 1306.37 101.304C1303.81 96.952 1300.29 93.56 1295.81 91.128C1291.33 88.696 1286.15 87.48 1280.26 87.48H1255.68V142.776Z" fill="#E44641"/>
<rect width="256" height="256" rx="32" fill="#E44641"/>
<path d="M151.333 121.333H164.667C173.853 121.333 181.333 113.853 181.333 104.667V91.3333C181.333 82.1467 173.853 74.6667 164.667 74.6667H151.333C142.147 74.6667 134.667 82.1467 134.667 91.3333V104.667C134.667 113.853 142.147 121.333 151.333 121.333ZM148 91.3333C148 89.4933 149.493 88 151.333 88H164.667C166.507 88 168 89.4933 168 91.3333V104.667C168 106.507 166.507 108 164.667 108H151.333C149.493 108 148 106.507 148 104.667V91.3333ZM208 161.333V174.667C208 193.047 193.047 208 174.667 208H161.333C157.653 208 154.667 205.013 154.667 201.333C154.667 197.653 157.653 194.667 161.333 194.667H174.667C185.693 194.667 194.667 185.693 194.667 174.667V161.333C194.667 157.653 197.653 154.667 201.333 154.667C205.013 154.667 208 157.653 208 161.333ZM208 81.3333V94.6667C208 98.3467 205.013 101.333 201.333 101.333C197.653 101.333 194.667 98.3467 194.667 94.6667V81.3333C194.667 70.3067 185.693 61.3333 174.667 61.3333H161.333C157.653 61.3333 154.667 58.3467 154.667 54.6667C154.667 50.9867 157.653 48 161.333 48H174.667C193.047 48 208 62.9533 208 81.3333ZM154.667 171.333C154.667 176.853 150.187 181.333 144.667 181.333C139.147 181.333 134.667 176.853 134.667 171.333C134.667 165.813 139.147 161.333 144.667 161.333C150.187 161.333 154.667 165.813 154.667 171.333ZM171.333 134.667C176.853 134.667 181.333 139.147 181.333 144.667C181.333 150.187 176.853 154.667 171.333 154.667C165.813 154.667 161.333 150.187 161.333 144.667C161.333 139.147 165.813 134.667 171.333 134.667ZM134.667 144.667C134.667 139.147 139.147 134.667 144.667 134.667C150.187 134.667 154.667 139.147 154.667 144.667C154.667 150.187 150.187 154.667 144.667 154.667C139.147 154.667 134.667 150.187 134.667 144.667Z" fill="white"/>
<path d="M120 53C120 50.24 118.368 47.94 116.403 48.35C104.102 50.92 95.1668 68.47 94.7335 132.97C94.7334 134.293 95.112 135.561 95.7861 136.498C96.4603 137.436 101.829 137.245 102.785 137.25C106.83 137.35 105.554 139.27 105.554 148V203C105.554 204.326 105.934 205.598 106.612 206.536C107.289 207.473 108.207 208 109.165 208H116.388C117.346 208 118.265 207.473 118.942 206.536C119.62 205.598 120 204.326 120 203V53ZM56.7975 48C57.2764 48 57.7358 48.2634 58.0744 48.7323C58.4131 49.2011 58.6033 49.837 58.6033 50.5V101.72C58.5976 102.06 58.6895 102.388 58.8588 102.634C59.0281 102.88 59.261 103.022 59.5062 103.03C59.7514 103.038 59.9889 102.911 60.1663 102.676C60.3438 102.442 60.4467 102.119 60.4524 101.78L62.1354 50.38C62.1578 49.7363 62.3588 49.1293 62.6966 48.6859C63.0344 48.2424 63.4829 47.9967 63.9484 48H67.7189C68.1832 47.9993 68.6298 48.2461 68.9661 48.6893C69.3024 49.1325 69.5024 49.738 69.5247 50.38L71.2077 101.78C71.2134 102.119 71.3164 102.442 71.4938 102.676C71.6713 102.911 71.9087 103.038 72.1539 103.03C72.3991 103.022 72.632 102.88 72.8013 102.634C72.9707 102.388 73.0626 102.06 73.0568 101.72V50.5C73.0568 49.8387 73.2461 49.2043 73.5832 48.7358C73.9202 48.2672 74.3777 48.0027 74.8554 48H76.9501C77.8551 48.0006 78.727 48.4716 79.3932 49.3198C80.0593 50.168 80.4712 51.3315 80.5472 52.58L83.6026 103.28C83.8207 106.89 83.195 110.502 81.8178 113.583C80.4405 116.664 78.3846 119.05 75.9533 120.39L75.5705 120.61C74.3003 121.308 73.2166 122.532 72.4669 124.114C71.7172 125.696 71.338 127.559 71.381 129.45L72.8329 198C72.8329 200.575 73.161 204.429 71.8457 206.25C70.5304 208.071 67.6794 207.71 65.8192 207.71C63.9591 207.71 61.604 208.071 60.2887 206.25C58.9734 204.429 58.8056 200.575 58.8056 198L60.2646 129.45C60.3076 127.559 59.9285 125.696 59.1788 124.114C58.4291 122.532 57.3453 121.308 56.0752 120.61L55.6924 120.39C53.2598 119.049 51.203 116.662 49.8256 113.579C48.4483 110.496 47.8233 106.882 48.0431 103.27L51.1057 52.58C51.1817 51.3315 51.5936 50.168 52.2597 49.3198C52.9259 48.4716 53.7978 48.0006 54.7028 48H56.7975Z" fill="white"/>
</svg>
