<svg width="1348" height="256" viewBox="0 0 1348 256" fill="none" xmlns="http://www.w3.org/2000/svg">
<path d="M324.897 222C323.073 222 321.585 221.424 320.433 220.272C319.281 219.12 318.705 217.632 318.705 215.808V115.728C318.705 113.904 319.281 112.416 320.433 111.264C321.585 110.112 323.073 109.536 324.897 109.536H350.817C359.073 109.536 366.609 110.928 373.425 113.712C380.337 116.4 386.289 120.288 391.281 125.376C396.273 130.368 400.113 136.272 402.801 143.088C405.489 149.904 406.833 157.44 406.833 165.696C406.833 173.952 405.489 181.536 402.801 188.448C400.113 195.264 396.273 201.216 391.281 206.304C386.289 211.296 380.337 215.184 373.425 217.968C366.609 220.656 359.073 222 350.817 222H324.897ZM331.089 210.912H350.817C359.457 210.912 367.041 208.992 373.569 205.152C380.193 201.216 385.377 195.84 389.121 189.024C392.865 182.208 394.737 174.432 394.737 165.696C394.737 156.96 392.865 149.184 389.121 142.368C385.377 135.552 380.193 130.224 373.569 126.384C367.041 122.544 359.457 120.624 350.817 120.624H331.089V210.912ZM462.908 222.72C455.612 222.72 449.084 220.992 443.324 217.536C437.564 213.984 433.004 209.184 429.644 203.136C426.284 197.088 424.604 190.272 424.604 182.688C424.604 175.008 426.332 168.144 429.788 162.096C433.34 156.048 438.14 151.296 444.188 147.84C450.236 144.288 457.052 142.512 464.636 142.512C472.124 142.512 478.844 144.288 484.796 147.84C490.844 151.296 495.596 156.048 499.052 162.096C502.604 168.144 504.428 175.008 504.524 182.688L499.628 185.136C499.628 192.24 497.996 198.624 494.732 204.288C491.564 209.952 487.196 214.464 481.628 217.824C476.156 221.088 469.916 222.72 462.908 222.72ZM464.636 211.776C470.012 211.776 474.764 210.528 478.892 208.032C483.116 205.44 486.428 201.936 488.828 197.52C491.324 193.104 492.572 188.16 492.572 182.688C492.572 177.12 491.324 172.176 488.828 167.856C486.428 163.44 483.116 159.936 478.892 157.344C474.764 154.752 470.012 153.456 464.636 153.456C459.356 153.456 454.556 154.752 450.236 157.344C446.012 159.936 442.652 163.44 440.156 167.856C437.66 172.176 436.412 177.12 436.412 182.688C436.412 188.16 437.66 193.104 440.156 197.52C442.652 201.936 446.012 205.44 450.236 208.032C454.556 210.528 459.356 211.776 464.636 211.776ZM498.332 222C496.604 222 495.116 221.472 493.868 220.416C492.716 219.264 492.14 217.776 492.14 215.952V192.192L494.876 179.664L504.524 182.688V215.952C504.524 217.776 503.948 219.264 502.796 220.416C501.644 221.472 500.156 222 498.332 222ZM560.221 222.72C552.925 222.72 546.397 220.992 540.637 217.536C534.877 213.984 530.317 209.184 526.957 203.136C523.597 197.088 521.917 190.272 521.917 182.688C521.917 175.008 523.645 168.144 527.101 162.096C530.653 156.048 535.453 151.296 541.501 147.84C547.549 144.288 554.365 142.512 561.949 142.512C569.437 142.512 576.157 144.288 582.109 147.84C588.157 151.296 592.909 156.048 596.365 162.096C599.917 168.144 601.741 175.008 601.837 182.688L596.941 185.136C596.941 192.24 595.309 198.624 592.045 204.288C588.877 209.952 584.509 214.464 578.941 217.824C573.469 221.088 567.229 222.72 560.221 222.72ZM561.949 211.776C567.325 211.776 572.077 210.528 576.205 208.032C580.429 205.44 583.741 201.936 586.141 197.52C588.637 193.104 589.885 188.16 589.885 182.688C589.885 177.12 588.637 172.176 586.141 167.856C583.741 163.44 580.429 159.936 576.205 157.344C572.077 154.752 567.325 153.456 561.949 153.456C556.669 153.456 551.869 154.752 547.549 157.344C543.325 159.936 539.965 163.44 537.469 167.856C534.973 172.176 533.725 177.12 533.725 182.688C533.725 188.16 534.973 193.104 537.469 197.52C539.965 201.936 543.325 205.44 547.549 208.032C551.869 210.528 556.669 211.776 561.949 211.776ZM595.645 222C593.917 222 592.429 221.472 591.181 220.416C590.029 219.264 589.453 217.776 589.453 215.952V192.192L592.189 179.664L601.837 182.688V215.952C601.837 217.776 601.261 219.264 600.109 220.416C598.957 221.472 597.469 222 595.645 222ZM728.957 222C727.133 222 725.645 221.472 724.493 220.416C723.341 219.264 722.765 217.776 722.765 215.952V174.624C722.765 168 721.085 162.864 717.725 159.216C714.365 155.568 709.997 153.744 704.621 153.744C698.957 153.744 694.301 155.664 690.653 159.504C687.101 163.344 685.325 168.384 685.325 174.624H674.813C674.909 168.192 676.301 162.576 678.989 157.776C681.677 152.88 685.373 149.088 690.077 146.4C694.877 143.712 700.301 142.368 706.349 142.368C711.917 142.368 716.861 143.664 721.181 146.256C725.501 148.848 728.861 152.592 731.261 157.488C733.757 162.288 735.005 168 735.005 174.624V215.952C735.005 217.776 734.429 219.264 733.277 220.416C732.125 221.472 730.685 222 728.957 222ZM629.597 222C627.677 222 626.141 221.472 624.989 220.416C623.933 219.264 623.405 217.776 623.405 215.952V149.424C623.405 147.6 623.933 146.112 624.989 144.96C626.141 143.808 627.677 143.232 629.597 143.232C631.421 143.232 632.861 143.808 633.917 144.96C635.069 146.112 635.645 147.6 635.645 149.424V215.952C635.645 217.776 635.069 219.264 633.917 220.416C632.861 221.472 631.421 222 629.597 222ZM679.277 222C677.549 222 676.109 221.472 674.957 220.416C673.805 219.264 673.229 217.776 673.229 215.952V174.624C673.229 168 671.501 162.864 668.045 159.216C664.685 155.568 660.365 153.744 655.085 153.744C649.421 153.744 644.765 155.616 641.117 159.36C637.469 163.104 635.645 168 635.645 174.048H627.293C627.485 167.808 628.829 162.336 631.325 157.632C633.821 152.832 637.277 149.088 641.693 146.4C646.109 143.712 651.149 142.368 656.813 142.368C662.381 142.368 667.325 143.664 671.645 146.256C675.965 148.848 679.325 152.592 681.725 157.488C684.125 162.288 685.325 168 685.325 174.624V215.952C685.325 217.776 684.749 219.264 683.597 220.416C682.541 221.472 681.101 222 679.277 222ZM795.246 222.72C787.662 222.72 780.846 220.992 774.798 217.536C768.75 213.984 763.95 209.184 760.398 203.136C756.942 197.088 755.214 190.224 755.214 182.544C755.214 174.96 756.894 168.144 760.254 162.096C763.614 156.048 768.174 151.296 773.934 147.84C779.694 144.288 786.222 142.512 793.518 142.512C799.758 142.512 805.374 143.856 810.366 146.544C815.454 149.136 819.582 152.592 822.75 156.912V115.728C822.75 113.808 823.326 112.32 824.478 111.264C825.726 110.112 827.214 109.536 828.942 109.536C830.766 109.536 832.254 110.112 833.406 111.264C834.558 112.32 835.134 113.808 835.134 115.728V182.976C834.942 190.464 833.07 197.232 829.518 203.28C826.062 209.232 821.358 213.984 815.406 217.536C809.454 220.992 802.734 222.72 795.246 222.72ZM795.246 211.776C800.622 211.776 805.374 210.48 809.502 207.888C813.726 205.296 817.038 201.84 819.438 197.52C821.934 193.104 823.182 188.112 823.182 182.544C823.182 177.072 821.934 172.128 819.438 167.712C817.038 163.296 813.726 159.84 809.502 157.344C805.374 154.752 800.622 153.456 795.246 153.456C789.966 153.456 785.166 154.752 780.846 157.344C776.622 159.84 773.262 163.296 770.766 167.712C768.27 172.128 767.022 177.072 767.022 182.544C767.022 188.112 768.27 193.104 770.766 197.52C773.262 201.84 776.622 205.296 780.846 207.888C785.166 210.48 789.966 211.776 795.246 211.776ZM895.046 222.864C888.23 222.864 882.134 221.472 876.758 218.688C871.478 215.808 867.302 211.632 864.23 206.16C861.158 200.688 859.622 193.968 859.622 186V149.28C859.622 147.552 860.198 146.112 861.35 144.96C862.502 143.808 863.942 143.232 865.67 143.232C867.398 143.232 868.838 143.808 869.99 144.96C871.142 146.112 871.718 147.552 871.718 149.28V186C871.718 191.856 872.822 196.656 875.03 200.4C877.238 204.048 880.214 206.832 883.958 208.752C887.702 210.576 891.926 211.488 896.63 211.488C901.142 211.488 905.222 210.624 908.87 208.896C912.518 207.072 915.398 204.672 917.51 201.696C919.622 198.624 920.678 195.12 920.678 191.184H928.886C928.694 197.232 927.11 202.656 924.134 207.456C921.158 212.16 917.126 215.904 912.038 218.688C906.95 221.472 901.286 222.864 895.046 222.864ZM926.726 222C924.902 222 923.414 221.472 922.262 220.416C921.206 219.264 920.678 217.728 920.678 215.808V149.28C920.678 147.456 921.206 146.016 922.262 144.96C923.414 143.808 924.902 143.232 926.726 143.232C928.55 143.232 930.038 143.808 931.19 144.96C932.342 146.016 932.918 147.456 932.918 149.28V215.808C932.918 217.728 932.342 219.264 931.19 220.416C930.038 221.472 928.55 222 926.726 222ZM992.78 222.864C985.964 222.864 979.868 221.472 974.492 218.688C969.212 215.808 965.036 211.632 961.964 206.16C958.892 200.688 957.356 193.968 957.356 186V149.28C957.356 147.552 957.932 146.112 959.084 144.96C960.236 143.808 961.676 143.232 963.404 143.232C965.132 143.232 966.572 143.808 967.724 144.96C968.876 146.112 969.452 147.552 969.452 149.28V186C969.452 191.856 970.556 196.656 972.764 200.4C974.972 204.048 977.948 206.832 981.692 208.752C985.436 210.576 989.66 211.488 994.364 211.488C998.876 211.488 1002.96 210.624 1006.6 208.896C1010.25 207.072 1013.13 204.672 1015.24 201.696C1017.36 198.624 1018.41 195.12 1018.41 191.184H1026.62C1026.43 197.232 1024.84 202.656 1021.87 207.456C1018.89 212.16 1014.86 215.904 1009.77 218.688C1004.68 221.472 999.02 222.864 992.78 222.864ZM1024.46 222C1022.64 222 1021.15 221.472 1020 220.416C1018.94 219.264 1018.41 217.728 1018.41 215.808V149.28C1018.41 147.456 1018.94 146.016 1020 144.96C1021.15 143.808 1022.64 143.232 1024.46 143.232C1026.28 143.232 1027.77 143.808 1028.92 144.96C1030.08 146.016 1030.65 147.456 1030.65 149.28V215.808C1030.65 217.728 1030.08 219.264 1028.92 220.416C1027.77 221.472 1026.28 222 1024.46 222Z" fill="#343434"/>
<path d="M324.897 222C323.073 222 321.585 221.424 320.433 220.272C319.281 219.12 318.705 217.632 318.705 215.808V115.728C318.705 113.904 319.281 112.416 320.433 111.264C321.585 110.112 323.073 109.536 324.897 109.536H350.817C359.073 109.536 366.609 110.928 373.425 113.712C380.337 116.4 386.289 120.288 391.281 125.376C396.273 130.368 400.113 136.272 402.801 143.088C405.489 149.904 406.833 157.44 406.833 165.696C406.833 173.952 405.489 181.536 402.801 188.448C400.113 195.264 396.273 201.216 391.281 206.304C386.289 211.296 380.337 215.184 373.425 217.968C366.609 220.656 359.073 222 350.817 222H324.897ZM331.089 210.912H350.817C359.457 210.912 367.041 208.992 373.569 205.152C380.193 201.216 385.377 195.84 389.121 189.024C392.865 182.208 394.737 174.432 394.737 165.696C394.737 156.96 392.865 149.184 389.121 142.368C385.377 135.552 380.193 130.224 373.569 126.384C367.041 122.544 359.457 120.624 350.817 120.624H331.089V210.912ZM462.908 222.72C455.612 222.72 449.084 220.992 443.324 217.536C437.564 213.984 433.004 209.184 429.644 203.136C426.284 197.088 424.604 190.272 424.604 182.688C424.604 175.008 426.332 168.144 429.788 162.096C433.34 156.048 438.14 151.296 444.188 147.84C450.236 144.288 457.052 142.512 464.636 142.512C472.124 142.512 478.844 144.288 484.796 147.84C490.844 151.296 495.596 156.048 499.052 162.096C502.604 168.144 504.428 175.008 504.524 182.688L499.628 185.136C499.628 192.24 497.996 198.624 494.732 204.288C491.564 209.952 487.196 214.464 481.628 217.824C476.156 221.088 469.916 222.72 462.908 222.72ZM464.636 211.776C470.012 211.776 474.764 210.528 478.892 208.032C483.116 205.44 486.428 201.936 488.828 197.52C491.324 193.104 492.572 188.16 492.572 182.688C492.572 177.12 491.324 172.176 488.828 167.856C486.428 163.44 483.116 159.936 478.892 157.344C474.764 154.752 470.012 153.456 464.636 153.456C459.356 153.456 454.556 154.752 450.236 157.344C446.012 159.936 442.652 163.44 440.156 167.856C437.66 172.176 436.412 177.12 436.412 182.688C436.412 188.16 437.66 193.104 440.156 197.52C442.652 201.936 446.012 205.44 450.236 208.032C454.556 210.528 459.356 211.776 464.636 211.776ZM498.332 222C496.604 222 495.116 221.472 493.868 220.416C492.716 219.264 492.14 217.776 492.14 215.952V192.192L494.876 179.664L504.524 182.688V215.952C504.524 217.776 503.948 219.264 502.796 220.416C501.644 221.472 500.156 222 498.332 222ZM560.221 222.72C552.925 222.72 546.397 220.992 540.637 217.536C534.877 213.984 530.317 209.184 526.957 203.136C523.597 197.088 521.917 190.272 521.917 182.688C521.917 175.008 523.645 168.144 527.101 162.096C530.653 156.048 535.453 151.296 541.501 147.84C547.549 144.288 554.365 142.512 561.949 142.512C569.437 142.512 576.157 144.288 582.109 147.84C588.157 151.296 592.909 156.048 596.365 162.096C599.917 168.144 601.741 175.008 601.837 182.688L596.941 185.136C596.941 192.24 595.309 198.624 592.045 204.288C588.877 209.952 584.509 214.464 578.941 217.824C573.469 221.088 567.229 222.72 560.221 222.72ZM561.949 211.776C567.325 211.776 572.077 210.528 576.205 208.032C580.429 205.44 583.741 201.936 586.141 197.52C588.637 193.104 589.885 188.16 589.885 182.688C589.885 177.12 588.637 172.176 586.141 167.856C583.741 163.44 580.429 159.936 576.205 157.344C572.077 154.752 567.325 153.456 561.949 153.456C556.669 153.456 551.869 154.752 547.549 157.344C543.325 159.936 539.965 163.44 537.469 167.856C534.973 172.176 533.725 177.12 533.725 182.688C533.725 188.16 534.973 193.104 537.469 197.52C539.965 201.936 543.325 205.44 547.549 208.032C551.869 210.528 556.669 211.776 561.949 211.776ZM595.645 222C593.917 222 592.429 221.472 591.181 220.416C590.029 219.264 589.453 217.776 589.453 215.952V192.192L592.189 179.664L601.837 182.688V215.952C601.837 217.776 601.261 219.264 600.109 220.416C598.957 221.472 597.469 222 595.645 222ZM728.957 222C727.133 222 725.645 221.472 724.493 220.416C723.341 219.264 722.765 217.776 722.765 215.952V174.624C722.765 168 721.085 162.864 717.725 159.216C714.365 155.568 709.997 153.744 704.621 153.744C698.957 153.744 694.301 155.664 690.653 159.504C687.101 163.344 685.325 168.384 685.325 174.624H674.813C674.909 168.192 676.301 162.576 678.989 157.776C681.677 152.88 685.373 149.088 690.077 146.4C694.877 143.712 700.301 142.368 706.349 142.368C711.917 142.368 716.861 143.664 721.181 146.256C725.501 148.848 728.861 152.592 731.261 157.488C733.757 162.288 735.005 168 735.005 174.624V215.952C735.005 217.776 734.429 219.264 733.277 220.416C732.125 221.472 730.685 222 728.957 222ZM629.597 222C627.677 222 626.141 221.472 624.989 220.416C623.933 219.264 623.405 217.776 623.405 215.952V149.424C623.405 147.6 623.933 146.112 624.989 144.96C626.141 143.808 627.677 143.232 629.597 143.232C631.421 143.232 632.861 143.808 633.917 144.96C635.069 146.112 635.645 147.6 635.645 149.424V215.952C635.645 217.776 635.069 219.264 633.917 220.416C632.861 221.472 631.421 222 629.597 222ZM679.277 222C677.549 222 676.109 221.472 674.957 220.416C673.805 219.264 673.229 217.776 673.229 215.952V174.624C673.229 168 671.501 162.864 668.045 159.216C664.685 155.568 660.365 153.744 655.085 153.744C649.421 153.744 644.765 155.616 641.117 159.36C637.469 163.104 635.645 168 635.645 174.048H627.293C627.485 167.808 628.829 162.336 631.325 157.632C633.821 152.832 637.277 149.088 641.693 146.4C646.109 143.712 651.149 142.368 656.813 142.368C662.381 142.368 667.325 143.664 671.645 146.256C675.965 148.848 679.325 152.592 681.725 157.488C684.125 162.288 685.325 168 685.325 174.624V215.952C685.325 217.776 684.749 219.264 683.597 220.416C682.541 221.472 681.101 222 679.277 222ZM795.246 222.72C787.662 222.72 780.846 220.992 774.798 217.536C768.75 213.984 763.95 209.184 760.398 203.136C756.942 197.088 755.214 190.224 755.214 182.544C755.214 174.96 756.894 168.144 760.254 162.096C763.614 156.048 768.174 151.296 773.934 147.84C779.694 144.288 786.222 142.512 793.518 142.512C799.758 142.512 805.374 143.856 810.366 146.544C815.454 149.136 819.582 152.592 822.75 156.912V115.728C822.75 113.808 823.326 112.32 824.478 111.264C825.726 110.112 827.214 109.536 828.942 109.536C830.766 109.536 832.254 110.112 833.406 111.264C834.558 112.32 835.134 113.808 835.134 115.728V182.976C834.942 190.464 833.07 197.232 829.518 203.28C826.062 209.232 821.358 213.984 815.406 217.536C809.454 220.992 802.734 222.72 795.246 222.72ZM795.246 211.776C800.622 211.776 805.374 210.48 809.502 207.888C813.726 205.296 817.038 201.84 819.438 197.52C821.934 193.104 823.182 188.112 823.182 182.544C823.182 177.072 821.934 172.128 819.438 167.712C817.038 163.296 813.726 159.84 809.502 157.344C805.374 154.752 800.622 153.456 795.246 153.456C789.966 153.456 785.166 154.752 780.846 157.344C776.622 159.84 773.262 163.296 770.766 167.712C768.27 172.128 767.022 177.072 767.022 182.544C767.022 188.112 768.27 193.104 770.766 197.52C773.262 201.84 776.622 205.296 780.846 207.888C785.166 210.48 789.966 211.776 795.246 211.776ZM895.046 222.864C888.23 222.864 882.134 221.472 876.758 218.688C871.478 215.808 867.302 211.632 864.23 206.16C861.158 200.688 859.622 193.968 859.622 186V149.28C859.622 147.552 860.198 146.112 861.35 144.96C862.502 143.808 863.942 143.232 865.67 143.232C867.398 143.232 868.838 143.808 869.99 144.96C871.142 146.112 871.718 147.552 871.718 149.28V186C871.718 191.856 872.822 196.656 875.03 200.4C877.238 204.048 880.214 206.832 883.958 208.752C887.702 210.576 891.926 211.488 896.63 211.488C901.142 211.488 905.222 210.624 908.87 208.896C912.518 207.072 915.398 204.672 917.51 201.696C919.622 198.624 920.678 195.12 920.678 191.184H928.886C928.694 197.232 927.11 202.656 924.134 207.456C921.158 212.16 917.126 215.904 912.038 218.688C906.95 221.472 901.286 222.864 895.046 222.864ZM926.726 222C924.902 222 923.414 221.472 922.262 220.416C921.206 219.264 920.678 217.728 920.678 215.808V149.28C920.678 147.456 921.206 146.016 922.262 144.96C923.414 143.808 924.902 143.232 926.726 143.232C928.55 143.232 930.038 143.808 931.19 144.96C932.342 146.016 932.918 147.456 932.918 149.28V215.808C932.918 217.728 932.342 219.264 931.19 220.416C930.038 221.472 928.55 222 926.726 222ZM992.78 222.864C985.964 222.864 979.868 221.472 974.492 218.688C969.212 215.808 965.036 211.632 961.964 206.16C958.892 200.688 957.356 193.968 957.356 186V149.28C957.356 147.552 957.932 146.112 959.084 144.96C960.236 143.808 961.676 143.232 963.404 143.232C965.132 143.232 966.572 143.808 967.724 144.96C968.876 146.112 969.452 147.552 969.452 149.28V186C969.452 191.856 970.556 196.656 972.764 200.4C974.972 204.048 977.948 206.832 981.692 208.752C985.436 210.576 989.66 211.488 994.364 211.488C998.876 211.488 1002.96 210.624 1006.6 208.896C1010.25 207.072 1013.13 204.672 1015.24 201.696C1017.36 198.624 1018.41 195.12 1018.41 191.184H1026.62C1026.43 197.232 1024.84 202.656 1021.87 207.456C1018.89 212.16 1014.86 215.904 1009.77 218.688C1004.68 221.472 999.02 222.864 992.78 222.864ZM1024.46 222C1022.64 222 1021.15 221.472 1020 220.416C1018.94 219.264 1018.41 217.728 1018.41 215.808V149.28C1018.41 147.456 1018.94 146.016 1020 144.96C1021.15 143.808 1022.64 143.232 1024.46 143.232C1026.28 143.232 1027.77 143.808 1028.92 144.96C1030.08 146.016 1030.65 147.456 1030.65 149.28V215.808C1030.65 217.728 1030.08 219.264 1028.92 220.416C1027.77 221.472 1026.28 222 1024.46 222Z" fill="black" fill-opacity="0.2"/>
<path d="M1184.5 218.928L1144.37 178.8C1142.32 176.752 1141.3 174.512 1141.3 172.08C1141.3 169.52 1142.32 167.216 1144.37 165.168C1146.42 163.12 1148.66 162.096 1151.09 162.096C1153.65 162.096 1155.95 163.12 1158 165.168L1198.13 205.488C1200.05 207.536 1201.01 209.776 1201.01 212.208C1201.14 214.64 1200.18 216.88 1198.13 218.928C1196.08 220.976 1193.78 222 1191.22 222C1188.79 222 1186.55 220.976 1184.5 218.928ZM1132.08 223.92C1120.82 223.92 1110.51 222.064 1101.17 218.352C1091.83 214.512 1083.76 209.2 1076.98 202.416C1070.32 195.504 1065.14 187.376 1061.43 178.032C1057.71 168.56 1055.86 158.192 1055.86 146.928C1055.86 135.664 1057.71 125.36 1061.43 116.016C1065.14 106.672 1070.32 98.608 1076.98 91.824C1083.76 84.912 1091.83 79.6 1101.17 75.888C1110.51 72.048 1120.82 70.128 1132.08 70.128C1143.35 70.128 1153.59 72.048 1162.8 75.888C1172.15 79.6 1180.21 84.912 1186.99 91.824C1193.78 98.608 1199.03 106.672 1202.74 116.016C1206.45 125.36 1208.31 135.664 1208.31 146.928C1208.31 158.192 1206.45 168.56 1202.74 178.032C1199.03 187.376 1193.78 195.504 1186.99 202.416C1180.21 209.2 1172.15 214.512 1162.8 218.352C1153.59 222.064 1143.35 223.92 1132.08 223.92ZM1132.08 205.872C1140.4 205.872 1148.02 204.4 1154.93 201.456C1161.97 198.384 1168.05 194.224 1173.17 188.976C1178.29 183.6 1182.19 177.328 1184.88 170.16C1187.7 162.992 1189.11 155.248 1189.11 146.928C1189.11 138.608 1187.7 130.864 1184.88 123.696C1182.19 116.528 1178.29 110.32 1173.17 105.072C1168.05 99.696 1161.97 95.536 1154.93 92.592C1148.02 89.648 1140.4 88.176 1132.08 88.176C1123.76 88.176 1116.08 89.648 1109.04 92.592C1102.13 95.536 1096.11 99.696 1090.99 105.072C1086 110.32 1082.1 116.528 1079.28 123.696C1076.47 130.864 1075.06 138.608 1075.06 146.928C1075.06 155.248 1076.47 162.992 1079.28 170.16C1082.1 177.328 1086 183.6 1090.99 188.976C1096.11 194.224 1102.13 198.384 1109.04 201.456C1116.08 204.4 1123.76 205.872 1132.08 205.872ZM1249.57 222C1246.75 222 1244.38 221.04 1242.46 219.12C1240.54 217.2 1239.58 214.832 1239.58 212.016V82.032C1239.58 79.088 1240.54 76.72 1242.46 74.928C1244.38 73.008 1246.75 72.048 1249.57 72.048H1284.13C1293.73 72.048 1302.24 74.096 1309.66 78.192C1317.09 82.16 1322.85 87.664 1326.94 94.704C1331.17 101.744 1333.28 109.936 1333.28 119.28C1333.28 127.984 1331.17 135.728 1326.94 142.512C1322.85 149.296 1317.09 154.608 1309.66 158.448C1302.24 162.288 1293.73 164.208 1284.13 164.208H1259.55V212.016C1259.55 214.832 1258.59 217.2 1256.67 219.12C1254.88 221.04 1252.51 222 1249.57 222ZM1329.25 222C1327.45 222 1325.79 221.616 1324.25 220.848C1322.85 220.08 1321.63 218.864 1320.61 217.2L1286.05 161.52L1305.44 155.952L1336.93 206.64C1339.23 210.352 1339.55 213.872 1337.89 217.2C1336.22 220.4 1333.34 222 1329.25 222ZM1259.55 145.776H1284.13C1290.01 145.776 1295.2 144.688 1299.68 142.512C1304.16 140.208 1307.68 137.072 1310.24 133.104C1312.8 129.008 1314.08 124.4 1314.08 119.28C1314.08 113.648 1312.8 108.656 1310.24 104.304C1307.68 99.952 1304.16 96.56 1299.68 94.128C1295.2 91.696 1290.01 90.48 1284.13 90.48H1259.55V145.776Z" fill="#E44641"/>
<rect width="256" height="256" rx="64" fill="#E44641"/>
<path d="M151.333 121.333H164.667C173.853 121.333 181.333 113.853 181.333 104.667V91.3333C181.333 82.1467 173.853 74.6667 164.667 74.6667H151.333C142.147 74.6667 134.667 82.1467 134.667 91.3333V104.667C134.667 113.853 142.147 121.333 151.333 121.333ZM148 91.3333C148 89.4933 149.493 88 151.333 88H164.667C166.507 88 168 89.4933 168 91.3333V104.667C168 106.507 166.507 108 164.667 108H151.333C149.493 108 148 106.507 148 104.667V91.3333ZM208 161.333V174.667C208 193.047 193.047 208 174.667 208H161.333C157.653 208 154.667 205.013 154.667 201.333C154.667 197.653 157.653 194.667 161.333 194.667H174.667C185.693 194.667 194.667 185.693 194.667 174.667V161.333C194.667 157.653 197.653 154.667 201.333 154.667C205.013 154.667 208 157.653 208 161.333ZM208 81.3333V94.6667C208 98.3467 205.013 101.333 201.333 101.333C197.653 101.333 194.667 98.3467 194.667 94.6667V81.3333C194.667 70.3067 185.693 61.3333 174.667 61.3333H161.333C157.653 61.3333 154.667 58.3467 154.667 54.6667C154.667 50.9867 157.653 48 161.333 48H174.667C193.047 48 208 62.9533 208 81.3333ZM154.667 171.333C154.667 176.853 150.187 181.333 144.667 181.333C139.147 181.333 134.667 176.853 134.667 171.333C134.667 165.813 139.147 161.333 144.667 161.333C150.187 161.333 154.667 165.813 154.667 171.333ZM171.333 134.667C176.853 134.667 181.333 139.147 181.333 144.667C181.333 150.187 176.853 154.667 171.333 154.667C165.813 154.667 161.333 150.187 161.333 144.667C161.333 139.147 165.813 134.667 171.333 134.667ZM134.667 144.667C134.667 139.147 139.147 134.667 144.667 134.667C150.187 134.667 154.667 139.147 154.667 144.667C154.667 150.187 150.187 154.667 144.667 154.667C139.147 154.667 134.667 150.187 134.667 144.667Z" fill="white"/>
<path d="M120 53C120 50.24 118.368 47.94 116.403 48.35C104.102 50.92 95.1668 68.47 94.7335 132.97C94.7334 134.293 95.112 135.561 95.7861 136.498C96.4603 137.436 101.829 137.245 102.785 137.25C106.83 137.35 105.554 139.27 105.554 148V203C105.554 204.326 105.934 205.598 106.612 206.536C107.289 207.473 108.207 208 109.165 208H116.388C117.346 208 118.265 207.473 118.942 206.536C119.619 205.598 120 204.326 120 203V53ZM56.7975 48C57.2764 48 57.7358 48.2634 58.0744 48.7323C58.4131 49.2011 58.6033 49.837 58.6033 50.5V101.72C58.5976 102.06 58.6895 102.388 58.8588 102.634C59.0281 102.88 59.261 103.022 59.5062 103.03C59.7514 103.038 59.9889 102.911 60.1663 102.676C60.3438 102.442 60.4467 102.119 60.4524 101.78L62.1354 50.38C62.1578 49.7363 62.3588 49.1293 62.6966 48.6859C63.0344 48.2424 63.4829 47.9967 63.9484 48H67.7189C68.1832 47.9993 68.6298 48.2461 68.9661 48.6893C69.3024 49.1325 69.5024 49.738 69.5247 50.38L71.2077 101.78C71.2134 102.119 71.3164 102.442 71.4938 102.676C71.6713 102.911 71.9087 103.038 72.1539 103.03C72.3991 103.022 72.632 102.88 72.8013 102.634C72.9707 102.388 73.0626 102.06 73.0568 101.72V50.5C73.0568 49.8387 73.2461 49.2043 73.5832 48.7358C73.9202 48.2672 74.3777 48.0027 74.8554 48H76.9501C77.8551 48.0006 78.727 48.4716 79.3932 49.3198C80.0593 50.168 80.4712 51.3315 80.5472 52.58L83.6026 103.28C83.8207 106.89 83.195 110.502 81.8178 113.583C80.4405 116.664 78.3846 119.05 75.9533 120.39L75.5705 120.61C74.3003 121.308 73.2166 122.532 72.4669 124.114C71.7172 125.696 71.338 127.559 71.381 129.45L72.8329 198C72.8329 200.575 73.161 204.429 71.8457 206.25C70.5304 208.071 67.6794 207.71 65.8192 207.71C63.9591 207.71 61.604 208.071 60.2887 206.25C58.9734 204.429 58.8056 200.575 58.8056 198L60.2646 129.45C60.3076 127.559 59.9285 125.696 59.1788 124.114C58.4291 122.532 57.3453 121.308 56.0752 120.61L55.6924 120.39C53.2598 119.049 51.203 116.662 49.8256 113.579C48.4483 110.496 47.8233 106.882 48.0431 103.27L51.1057 52.58C51.1817 51.3315 51.5936 50.168 52.2597 49.3198C52.9259 48.4716 53.7978 48.0006 54.7028 48H56.7975Z" fill="white"/>
</svg>
