<?xml version="1.0" encoding="UTF-8"?>
<svg xmlns="http://www.w3.org/2000/svg" id="Layer_1" data-name="Layer 1" viewBox="0 0 24 24">
  <path d="M20.943,4.121c-.164-1.299-1.173-2.357-2.454-2.574-4.307-.728-8.672-.728-12.979,0-1.281,.216-2.29,1.275-2.454,2.575-.641,5.126-.666,10.323-.073,15.447,.077,.668,.437,1.283,.984,1.684,.401,.295,.799,.591,1.193,.885,.777,.581,1.82,.648,2.654,.172,.346-.197,.697-.402,1.052-.614,.158-.096,.359-.09,.512,.015l1.246,.862c.416,.287,.893,.43,1.368,.43s.952-.143,1.366-.429l1.249-.863c.15-.104,.349-.11,.51-.015,.358,.213,.712,.419,1.06,.617,.835,.475,1.875,.407,2.651-.171,.397-.296,.798-.593,1.2-.889,.55-.402,.91-1.017,.987-1.687,.593-5.123,.567-10.319-.073-15.445Zm-1.913,15.216c-.014,.116-.081,.229-.183,.303-.408,.3-.812,.6-1.214,.898-.14,.105-.322,.118-.467,.037-.337-.192-.679-.391-1.024-.597-.833-.496-1.883-.461-2.676,.091l-1.242,.859c-.144,.099-.321,.099-.465,0l-1.24-.858c-.793-.551-1.845-.587-2.679-.09-.342,.205-.682,.403-1.016,.594-.145,.082-.328,.067-.469-.038-.398-.297-.8-.596-1.205-.895-.101-.073-.168-.186-.182-.302-.573-4.965-.55-10.001,.071-14.968,.055-.431,.385-.781,.804-.852,4.084-.689,8.227-.689,12.311,0,.419,.071,.749,.421,.804,.851,.621,4.967,.645,10.003,.071,14.967Z"/>
  <path d="M15.5,5.818h-7c-.553,0-1,.448-1,1s.447,1,1,1h7c.553,0,1-.448,1-1s-.447-1-1-1Z"/>
  <path d="M15.5,9.999h-7c-.553,0-1,.448-1,1s.447,1,1,1h7c.553,0,1-.448,1-1s-.447-1-1-1Z"/>
  <path d="M12.159,14.18h-3.659c-.553,0-1,.448-1,1s.447,1,1,1h3.659c.553,0,1-.448,1-1s-.447-1-1-1Z"/>
</svg>
